<svg width="267" height="113" viewBox="0 0 267 113" fill="none" xmlns="http://www.w3.org/2000/svg">
<rect x="46.9377" y="6.67554" width="21.4007" height="92" rx="10.7003" transform="rotate(-15.9345 46.9377 6.67554)" fill="#474747"/>
<rect x="200.251" y="1" width="21.4007" height="92" rx="10.7003" transform="rotate(15.93 200.251 1)" fill="#474747"/>
<rect x="223.251" y="9" width="21.4007" height="92" rx="10.7003" transform="rotate(15.93 223.251 9)" fill="#474747"/>
<rect x="246.251" y="18" width="21.4007" height="92" rx="10.7003" transform="rotate(15.93 246.251 18)" fill="#474747"/>
<rect x="24" y="14.8753" width="21.4007" height="92" rx="10.7003" transform="rotate(-15.9345 24 14.8753)" fill="#474747"/>
<rect y="20.8753" width="21.4007" height="92" rx="10.7003" transform="rotate(-15.9345 0 20.8753)" fill="#474747"/>
<path d="M185 39C176 36.5 166.5 24.0001 133.5 24C100.5 23.9999 92 36.5 83 39" stroke="#474747" stroke-width="7"/>
</svg>
